<svg t="1663240199139" class="icon" viewBox="0 0 1024 1024" version="1.1" xmlns="http://www.w3.org/2000/svg" p-id="11155" width="200" height="200"><path d="M640 221.397333l-6.144 1.578667c-94.421333 25.344-166.826667 80-219.093333 154.965333-43.946667 63.146667-65.536 125.909333-72.832 169.728-7.296 43.733333 47.914667 67.2 74.709333 34.56l2.858667-3.882666c28.629333-42.965333 79.232-73.045333 144.64-91.221334l14.506666-3.84c19.2-4.693333 37.802667-8.021333 55.125334-10.24l6.229333-0.768V512a42.666667 42.666667 0 0 0 69.333333 33.28l213.333334-170.666667a42.666667 42.666667 0 0 0 0-66.56l-213.333334-170.666666A42.666667 42.666667 0 0 0 640 170.666667v50.730666z m85.12 37.845334L827.690667 341.333333l-102.528 82.005334L725.333333 426.666667a42.666667 42.666667 0 0 0-43.264-42.666667h-2.602666c-13.312 0.298667-30.165333 1.408-49.877334 3.712-29.141333 3.413333-58.965333 9.002667-88.32 17.194667l-13.738666 4.010666c-9.088 2.816-17.92 5.802667-26.581334 9.002667l-13.696 5.376-2.474666 3.413333c47.189333-67.669333 113.749333-113.408 204.885333-128.64a42.666667 42.666667 0 0 0 35.370667-36.906666l0.085333-1.92z" fill="#03CD8E" p-id="11156"></path><path d="M341.333333 213.333333a42.666667 42.666667 0 0 1 4.992 85.034667L341.333333 298.666667H170.666667v554.666666h682.666666v-256a42.666667 42.666667 0 0 1 85.034667-4.992L938.666667 597.333333v256a85.333333 85.333333 0 0 1-78.933334 85.12L853.333333 938.666667H170.666667a85.333333 85.333333 0 0 1-85.12-78.933334L85.333333 853.333333V298.666667a85.333333 85.333333 0 0 1 78.933334-85.12L170.666667 213.333333h170.666666z" fill="#049DEE" p-id="11157"></path></svg>
