<svg t="1663306725208" class="icon" viewBox="0 0 1024 1024" version="1.1" xmlns="http://www.w3.org/2000/svg" p-id="2347" width="200" height="200"><path d="M467.753086 903.901235h-101.135802c-26.548148 0-41.718519-13.906173-53.096296-25.283951-8.849383-8.849383-15.17037-12.641975-22.755556-12.641975h-88.493827v-25.283951h88.493827c17.698765 0 29.076543 10.11358 39.190124 20.227161 10.11358 10.11358 18.962963 17.698765 36.661728 17.698765h101.135802v25.283951zM619.45679 777.481481h-63.209876c-21.491358 0-37.925926-16.434568-37.925926-37.925925v-25.283951c0-21.491358 16.434568-37.925926 37.925926-37.925926h63.209876c21.491358 0 37.925926 16.434568 37.925926 37.925926v25.283951c0 21.491358-16.434568 37.925926-37.925926 37.925925z m-63.209876-75.851851c-7.585185 0-12.641975 5.05679-12.641976 12.641975v25.283951c0 7.585185 5.05679 12.641975 12.641976 12.641975h63.209876c7.585185 0 12.641975-5.05679 12.641975-12.641975v-25.283951c0-7.585185-5.05679-12.641975-12.641975-12.641975h-63.209876z" fill="#707070" p-id="2348"></path><path d="M606.814815 701.62963h-63.209877c-21.491358 0-37.925926-16.434568-37.925926-37.925926v-25.283951c0-21.491358 16.434568-37.925926 37.925926-37.925926h63.209877c21.491358 0 37.925926 16.434568 37.925926 37.925926v25.283951c0 21.491358-16.434568 37.925926-37.925926 37.925926z m-63.209877-75.851852c-7.585185 0-12.641975 5.05679-12.641975 12.641975v25.283951c0 7.585185 5.05679 12.641975 12.641975 12.641975h63.209877c7.585185 0 12.641975-5.05679 12.641975-12.641975v-25.283951c0-7.585185-5.05679-12.641975-12.641975-12.641975h-63.209877zM606.814815 853.333333h-63.209877c-21.491358 0-37.925926-16.434568-37.925926-37.925926v-25.28395c0-21.491358 16.434568-37.925926 37.925926-37.925926h63.209877c21.491358 0 37.925926 16.434568 37.925926 37.925926v25.28395c0 21.491358-17.698765 37.925926-37.925926 37.925926z m-63.209877-75.851852c-7.585185 0-12.641975 5.05679-12.641975 12.641976v25.28395c0 7.585185 5.05679 12.641975 12.641975 12.641976h63.209877c7.585185 0 12.641975-5.05679 12.641975-12.641976v-25.28395c0-7.585185-5.05679-12.641975-12.641975-12.641976h-63.209877z" fill="#707070" p-id="2349"></path><path d="M581.530864 916.54321h-63.209876c-21.491358 0-37.925926-16.434568-37.925926-37.925926v-12.641975c0-21.491358 16.434568-37.925926 37.925926-37.925926h63.209876c21.491358 0 37.925926 16.434568 37.925926 37.925926v12.641975c0 21.491358-17.698765 37.925926-37.925926 37.925926z m-63.209876-63.209877c-7.585185 0-12.641975 5.05679-12.641976 12.641976v12.641975c0 7.585185 5.05679 12.641975 12.641976 12.641975h63.209876c7.585185 0 12.641975-5.05679 12.641976-12.641975v-12.641975c0-7.585185-5.05679-12.641975-12.641976-12.641976h-63.209876z" fill="#707070" p-id="2350"></path><path d="M151.703704 613.135802h126.419753v278.123457h-126.419753z" fill="#707070" p-id="2351"></path><path d="M290.765432 903.901235h-151.703704v-303.407408h151.703704v303.407408z m-126.419753-25.283951h101.135802v-252.839506h-101.135802v252.839506zM386.844444 801.501235l-8.849382-24.019754c54.360494-20.22716 89.758025-69.530864 89.758024-127.68395v-63.209877c0-5.05679 1.264198-10.11358 3.792593-16.434568 3.792593-11.377778 8.849383-27.812346 8.849383-54.360493 0-39.190123-6.320988-51.832099-22.755556-72.05926-6.320988-8.849383-16.434568-11.377778-22.755555-8.849382-5.05679 1.264198-5.05679 5.05679-5.056791 6.320987v17.698766c0 59.417284-26.548148 97.34321-54.360493 130.212345L322.37037 648.533333h-30.34074v-25.28395h20.22716l45.511111-51.832099c30.340741-34.133333 48.039506-64.474074 48.039506-112.51358v-17.698766c0-13.906173 8.849383-26.548148 22.755556-30.34074 15.17037-5.05679 36.661728-1.264198 50.567901 17.698765 20.22716 25.283951 27.812346 42.982716 27.812346 87.22963 0 30.340741-6.320988 49.303704-10.11358 61.945679-1.264198 3.792593-2.528395 7.585185-2.528395 8.849382v63.209877c-2.528395 69.530864-44.246914 128.948148-107.456791 151.703704z" fill="#707070" p-id="2352"></path><path d="M644.740741 587.851852c-7.585185 0-15.17037-3.792593-20.227161-10.11358L575.209877 512h-69.530865v-25.283951H587.851852l56.888889 75.851852v-75.851852h37.925926v-189.629629h-316.049383v37.925926h-25.283951v-63.209877h366.617284v240.197531h-37.925926v50.567901c0 11.377778-6.320988 20.22716-17.698765 24.019753-2.528395 1.264198-5.05679 1.264198-7.585185 1.264198z" fill="#707070" p-id="2353"></path><path d="M581.530864 233.876543h25.283951v50.567901h-25.283951z" fill="#707070" p-id="2354"></path><path d="M265.481481 461.432099c-2.528395 0-5.05679 0-7.585185-1.264198-10.11358-3.792593-17.698765-12.641975-17.698765-24.019753v-50.567901h-37.925926v-278.123457h404.54321v88.493827h-25.283951v-63.209876h-353.975308v227.555555h37.925925v75.851852l56.888889-75.851852h259.160494v-37.925926h25.283951v63.209877H335.012346l-49.303704 65.738272c-5.05679 6.320988-12.641975 10.11358-20.227161 10.11358z" fill="#707070" p-id="2355"></path><path d="M821.728395 512c-7.585185 0-15.17037-3.792593-20.22716-10.11358L752.197531 436.148148h-56.888889v-25.28395H764.839506l56.888889 75.851851v-75.851851h37.925926v-202.271605h-379.259259v37.925926h-25.283951v-63.209877h429.827161v252.839506h-37.925926v50.567901c0 11.377778-6.320988 20.22716-17.698766 24.019753-2.528395 1.264198-5.05679 1.264198-7.585185 1.264198zM417.185185 512h-75.851852v-101.135802h25.283951v75.851851h50.567901zM202.271605 651.061728h25.283951v50.567902h-25.283951z" fill="#707070" p-id="2356"></path></svg>
