<svg t="1664603195477" class="icon" viewBox="0 0 1024 1024" version="1.1" xmlns="http://www.w3.org/2000/svg" p-id="9270" width="200" height="200"><path d="M299.8 693.1c1.4-0.6 2.7-1.4 4.1-2 16.7-32.4 37.2-59.6 60.4-80.2-100-40.3-170.6-137.1-170.6-250.7 0-13.5 1.3-26.6 3.2-39.6C99.9 333.9 25.1 414.8 25.1 512.9c0 81.6 51.7 151.3 124.9 180.1C103 734 71.2 812.2 71.2 902l185.2 0c0-78.2 17.1-149.9 45.5-206.7C301.2 694.6 300.6 693.8 299.8 693.1z" p-id="9271" fill="#1296db"></path><path d="M992.6 512.9c0-98.1-74.8-179.1-171.9-192.3 1.9 13 3.2 26.1 3.2 39.6 0 113.5-70.6 210.4-170.6 250.7 23.2 20.6 43.7 47.8 60.4 80.2 1.4 0.6 2.7 1.4 4.1 2-0.8 0.7-1.4 1.5-2.2 2.2 28.4 56.8 45.5 128.6 45.5 206.7l185.2 0c0-89.8-31.8-168-78.8-208.9C940.9 664.2 992.6 594.5 992.6 512.9z" p-id="9272" fill="#1296db"></path><path d="M611.5 611.2c100-40.2 170.6-137.4 170.6-250.9 0-149.6-122.4-270.9-273.3-270.9S235.5 210.7 235.5 360.3c0 113.6 70.6 210.7 170.6 250.9C342 668.3 298.5 777.1 298.5 902l420.6 0C719.2 777.1 675.7 668.3 611.5 611.2zM508.8 510.6c-60.9 0-110.5-42.1-110.5-93.8 0-10.7 8.7-19.3 19.3-19.3s19.3 8.7 19.3 19.3c0 30.4 32.2 55.1 71.8 55.1s71.8-24.7 71.8-55.1c0-10.7 8.7-19.3 19.3-19.3s19.3 8.7 19.3 19.3C619.3 468.5 569.8 510.6 508.8 510.6z" p-id="9273" fill="#1296db"></path></svg>
