<svg t="1663209487806" class="icon" viewBox="0 0 1024 1024" version="1.1" xmlns="http://www.w3.org/2000/svg" p-id="14932" width="200" height="200"><path d="M832 362.666667c0-181.994667-151.936-328.512-335.872-319.616-163.904 7.914667-297.856 143.530667-303.914667 307.52a318.613333 318.613333 0 0 0 88.938667 233.536C348.885333 654.592 384 750.229333 384 847.957333c0 70.08 54.016 131.2 124.053333 133.312A128 128 0 0 0 640 853.333333c0-101.738667 38.698667-199.424 107.584-274.261333A318.4 318.4 0 0 0 832 362.666667z" fill="#FFC200" p-id="14933"></path><path d="M382.250667 810.666667c1.130667 12.373333 1.749333 24.810667 1.749333 37.290666 0 70.08 54.016 131.2 124.053333 133.312A128 128 0 0 0 640 853.333333c0-14.336 0.96-28.544 2.474667-42.666666H382.250667z" fill="#3D3D3D" p-id="14934"></path><path d="M362.666667 298.666667h298.666666v42.666666H362.666667z" fill="#FF8B00" p-id="14935"></path><path d="M597.333333 810.666667h-42.666666l21.333333-469.333334h42.666667zM426.666667 810.666667h42.666666l-21.333333-469.333334h-42.666667z" fill="#FFFFFF" p-id="14936"></path></svg>
