<svg t="1664603695305" class="icon" viewBox="0 0 1024 1024" version="1.1" xmlns="http://www.w3.org/2000/svg" p-id="11258" width="200" height="200"><path d="M305.834667 194.474667A109.141333 109.141333 0 0 1 414.976 85.333333h326.357333a109.141333 109.141333 0 0 1 109.141334 109.141334v422.058666A109.184 109.184 0 0 1 938.666667 723.669333v105.813334A109.141333 109.141333 0 0 1 829.525333 938.666667H194.474667A109.141333 109.141333 0 0 1 85.333333 829.525333v-105.813333c0-53.162667 37.973333-97.408 88.192-107.178667V414.976a109.141333 109.141333 0 0 1 109.141334-109.141333h23.168v-111.36z m0 170.88h-23.168c-27.392 0-49.578667 22.186667-49.578667 49.621333v199.552h72.746667v-249.173333z m59.52 249.173333h425.6V194.474667c0-27.392-22.229333-49.621333-49.621334-49.621334H414.976c-27.392 0-49.621333 22.229333-49.621333 49.621334v420.053333z m50.730666-323.029333c0-16.426667 13.312-29.781333 29.781334-29.781334h264.576a29.781333 29.781333 0 0 1 0 59.562667H445.866667a29.781333 29.781333 0 0 1-29.781334-29.781333z m0 176.384c0-16.426667 13.312-29.738667 29.781334-29.738667h154.325333a29.781333 29.781333 0 0 1 0 59.52H445.866667a29.781333 29.781333 0 0 1-29.781334-29.781333zM194.474667 674.133333c-27.392 0-49.621333 22.186667-49.621334 49.578667v105.813333c0 27.434667 22.229333 49.664 49.621334 49.664h635.050666c27.392 0 49.621333-22.186667 49.621334-49.621333v-105.813333c0-27.434667-22.186667-49.621333-49.621334-49.621334H194.474667z m111.36 58.410667c0-16.426667 13.312-29.781333 29.781333-29.781333h352.768a29.781333 29.781333 0 1 1 0 59.562666H335.616a29.781333 29.781333 0 0 1-29.781333-29.781333z" p-id="11259"></path></svg>
