<svg t="1664607622754" class="icon" viewBox="0 0 1170 1024" version="1.1" xmlns="http://www.w3.org/2000/svg" p-id="12029" width="200" height="200"><path d="M0 289.54819l3.413333-10.337523a72.216381 72.216381 0 0 1 64.170667-49.249524 72.655238 72.655238 0 0 1 67.535238 39.009524c13.165714 25.697524 9.167238 56.07619-9.752381 78.409143a99.669333 99.669333 0 0 0-6.826667 7.996952c53.248 32.670476 105.910857 64.707048 158.573715 97.328762 20.041143 12.629333 40.082286 24.624762 60.123428 36.668952 11.459048 6.826667 20.041143 4.583619 26.331429-6.339047 60.708571-109.909333 120.832-220.40381 182.125714-332.068572-26.331429-13.165714-43.544381-33.792-45.251047-64.121905a67.779048 67.779048 0 0 1 21.747809-54.418285c29.744762-29.159619 78.994286-26.331429 105.325714 5.753904 30.378667 37.205333 19.504762 80.164571-28.574476 112.786286 15.457524 28.623238 31.50019 57.246476 46.957714 85.869714 44.080762 80.164571 87.576381 159.792762 131.657143 239.908572 10.337524 18.334476 16.579048 20.089905 34.377143 9.167238 68.120381-41.20381 135.704381-82.992762 203.824762-124.830476 2.876952-1.706667 6.339048-3.998476 9.752381-6.290286-14.336-14.287238-22.918095-29.744762-24.039619-49.249524-1.706667-36.571429 23.454476-68.705524 58.368-74.410666a71.43619 71.43619 0 0 1 81.92 50.371047c0.536381 2.925714 1.706667 5.753905 2.82819 8.630857v24.576c-11.410286 37.254095-35.498667 58.416762-76.117333 59.001905-1.755429 3.998476-2.925714 8.582095-4.047238 12.580572-39.497143 136.289524-79.579429 273.115429-119.076571 409.404952-5.168762 17.749333-11.459048 22.332952-29.208381 22.332952H229.571048c-19.407238 0-25.161143-4.583619-30.329905-22.332952-32.621714-110.494476-64.121905-221.574095-96.743619-332.068572-8.582095-29.793524-17.749333-59.587048-26.331429-89.916952C45.787429 373.126095 22.918095 361.130667 8.582095 334.750476 5.168762 328.46019 2.925714 321.048381 0 314.172952v-24.624762z m572.611048 599.478858h320.609523c28.672 0 51.541333 20.041143 54.418286 47.542857a53.833143 53.833143 0 0 1-42.374095 58.416762c-3.998476 1.121524-7.996952 1.121524-12.044191 1.121523H251.367619c-24.624762 0-45.251048-14.287238-52.126476-36.62019-7.41181-21.796571-0.536381-46.957714 18.919619-59.587048a71.68 71.68 0 0 1 35.498667-10.873904c106.496-0.536381 212.406857 0 318.902857 0z" fill="#f4ea2a" p-id="12030"></path></svg>
