<svg t="1663239542412" class="icon" viewBox="0 0 1024 1024" version="1.1" xmlns="http://www.w3.org/2000/svg" p-id="29341" width="200" height="200"><path d="M502.063 48.513c83.91 0 174.651 257.039 174.651 257.039s280.086 12.389 306.011 92.19c25.924 79.803-197.681 238.767-197.681 238.767s81.964 276.966 14.08 326.294C731.241 1012.113 502.1 834.931 502.1 834.931S272.884 1012.113 205 962.802c-67.884-49.328 9.709-325.185 9.709-325.185S-4.534 477.525 21.4 397.742c25.933-79.821 301.592-99.409 301.592-99.409s95.161-249.82 179.071-249.82z" fill="#cdcdcd" p-id="29342"></path><path d="M767.741 976.469c-37.877 0.004-94.685-23.216-168.845-69.012-46.642-28.803-85.825-57.941-96.796-66.241-10.975 8.299-50.169 37.437-96.825 66.238-74.181 45.795-131.003 69.015-168.887 69.015-13.987 0-25.536-3.237-34.326-9.622-29.774-21.636-37.382-84.166-22.611-185.854 9.486-65.307 25.551-126.671 29.533-141.398-11.837-8.847-59.47-45.105-104.134-88.407-69.923-67.79-99.6-119.937-88.205-154.992 11.351-34.937 66.618-62.859 164.267-82.989 62.962-12.979 124.171-18.447 138.561-19.615 5.183-13.18 27.359-68.195 57.206-122.575C423.115 86.411 465.3 43.513 502.063 43.513c36.82 0 78.282 44.151 123.234 131.226 28.802 55.79 49.966 112.229 54.99 125.99 14.87 0.811 76.864 4.7 140.589 16.071 99.184 17.698 155.238 44.411 166.604 79.398 11.4 35.092-19.029 87.07-90.441 154.49-45.543 42.996-94.058 78.967-106.216 87.815 4.247 14.905 21.236 76.424 31.656 141.869 16.252 102.082 9.384 164.822-20.415 186.476-8.79 6.383-20.336 9.62-34.323 9.621z m-265.64-147.857l3.058 2.364c1.752 1.354 176.25 135.5 262.582 135.493 11.831-0.001 21.401-2.596 28.445-7.712 26.124-18.983 31.806-80.094 16.432-176.725-11.812-74.232-32.163-143.416-32.368-144.105l-1.013-3.425 2.91-2.069c0.558-0.396 56.29-40.163 108.097-89.084 67.348-63.597 97.683-113.413 87.726-144.063-9.994-30.764-64.923-55.884-158.85-72.644-72.102-12.865-141.93-16.066-142.626-16.097l-3.371-0.149-1.123-3.182c-0.226-0.64-22.983-64.752-55.632-127.975-42.474-82.252-82-125.728-114.305-125.728-32.373 0-72.698 42.296-116.618 122.316-33.723 61.441-57.543 123.663-57.78 124.284l-1.136 2.981-3.182 0.226c-0.687 0.049-69.495 5.054-140.508 19.7-92.491 19.077-146.671 45.449-156.684 76.267-9.97 30.671 19.625 80.691 85.585 144.654 50.729 49.193 105.372 89.24 105.918 89.639l2.805 2.049-0.94 3.343c-0.193 0.688-19.454 69.592-30.189 143.549-13.978 96.294-7.543 157.235 18.606 176.237 7.044 5.117 16.616 7.712 28.448 7.712 86.353 0 260.901-134.139 262.654-135.494l3.059-2.362z" fill="#cdcdcd" p-id="29343"></path><path d="M491.537 629.311c-2.402 0-4.8-0.053-7.192-0.159-41.195-1.823-75.919-19.168-97.776-48.838l8.051-5.932c41.56 56.418 132.666 60.113 203.088 8.245l5.931 8.051c-34.017 25.056-73.555 38.633-112.102 38.633z" fill="#cdcdcd" p-id="29344"></path></svg>
