<svg t="1663209329239" class="icon" viewBox="0 0 1024 1024" version="1.1" xmlns="http://www.w3.org/2000/svg" p-id="11687" width="200" height="200"><path d="M887.6 388.8l-104.3 32.7c-26 8.7-43.6 19.6-43.6 43.6V350.8c0-42-34.3-76.3-76.3-76.3H250.3c-42 0-76.3 34.3-76.3 76.3v385.5c0 42 34.3 76.3 76.3 76.3h413.1c42 0 76.3-34.3 76.3-76.3V621.9c0 24 18.7 35.7 43.6 43.6l104.3 32.7c24 0 43.6-19.6 43.6-43.6V432.4c0-23.9-19.6-43.6-43.6-43.6z" fill="#FFE4B3" p-id="11688"></path><path d="M630.7 796.3H217.6c-51.1 0-92.7-41.6-92.7-92.7V318.1c0-51.1 41.6-92.7 92.7-92.7h413.1c51.1 0 92.7 41.6 92.7 92.7v385.5c0 51.1-41.6 92.7-92.7 92.7zM217.6 258.1c-33.1 0-60 26.9-60 60v385.5c0 33.1 26.9 60 60 60h413.1c33.1 0 60-26.9 60-60V318.1c0-33.1-26.9-60-60-60H217.6z" fill="#EFA716" p-id="11689"></path><path d="M854.9 681.9c-1.7 0-3.3-0.3-4.9-0.8l-104.3-32.7c-13.6-4.3-55.1-17.4-55.1-59.2V432.4c0-40.8 38.4-53.6 54.8-59.1 0.1 0 0.2-0.1 0.3-0.1L850 340.5c1.6-0.5 3.2-0.7 4.9-0.7 33.1 0 60 26.9 60 60V622c0 33-26.9 59.9-60 59.9z m-99.2-277.5c-27.1 9.1-32.3 16.9-32.3 28v156.8c0 9.3 3.9 19.1 32.2 28l101.6 31.9c14-1.1 25-12.9 25-27.2V399.7c0-14.3-11-26-25-27.2l-101.5 31.9z" fill="#EFA716" p-id="11690"></path></svg>
